<?xml version="1.0" encoding="utf-8"?>
<!-- Generator: Adobe Illustrator 27.4.0, SVG Export Plug-In . SVG Version: 6.00 Build 0)  -->
<svg version="1.1" id="Layer_1" xmlns="http://www.w3.org/2000/svg" xmlns:xlink="http://www.w3.org/1999/xlink" x="0px" y="0px"
	 viewBox="0 0 100 100" style="enable-background:new 0 0 100 100;" xml:space="preserve">
<style type="text/css">
	.st0{fill:#D8D8D8;}
	.st1{fill:#FFFFFF;}
</style>
<path class="st0" d="M6.2,52.2c1.8-0.3,3.1,0.6,4.5,1.7c3.2,2.6,6.5,5.2,9.8,7.8c0.4,0.3,0.7,0.5,1.2,0.2
	c6.9-3.9,13.9-7.7,20.8-11.6c0.1-0.1,0.2-0.2,0.3-0.2l9.9-5.5c5.7-3.1,11.4-6.3,17.1-9.4c7.2-4,14.5-8,21.7-12
	c0.3-0.1,0.6-0.2,0.7-0.6c0,0,0,0-0.1-0.1c0,0,0,0-0.1,0h1.7c-2.5,1.9-5.1,3.6-7.6,5.3C75.8,34.9,65.5,42,55.1,49.1
	c-0.2,0.1-0.3,0.2-0.4,0.4c-3.2,2.2-6.4,4.4-9.6,6.6c-3.8,2.6-7.6,5.1-11.3,7.7C28.5,67.4,23.2,71,18,74.6c-0.3,0.2-0.6,0.3-0.8,0.7
	c0,0,0,0,0.1,0c0,0,0.1,0,0.1,0h-0.8c0-0.1,0-0.2,0-0.3c-3.3-7.3-6.7-14.6-10-21.8c-0.1-0.2-0.1-0.5-0.4-0.3L6.2,52.2L6.2,52.2z"/>
<path class="st1" d="M45,56.1c3.2-2.2,6.4-4.4,9.6-6.6c2.5,6.4,5,12.8,7.5,19.2c0.4,1,0.4,1-0.7,1c-3.4,0-6.8,0-10.2,0
	c-0.8,0-1.2-0.3-1.4-1C48.3,64.5,46.6,60.3,45,56.1z M52.7,44.6l-9.9,5.5c-1-2.6-2-5.2-3.1-8c-1,2.2-1.9,4.1-2.8,6.1
	c-0.3,0.7-0.8,1.2-1.5,1.6c-4.1,2.3-8.1,4.5-12.2,6.8c-0.2,0.1-0.5,0.3-0.9,0.3c0.6-1.5,1.1-3.1,1.7-4.6c2.7-7.1,5.3-14.2,8-21.3
	c0.3-0.8,0.7-1.1,1.6-1.1c4.1,0,8.2,0,12.3,0c0.8,0,1.2,0.2,1.5,1C49.1,35.4,50.9,40,52.7,44.6z"/>
</svg>
