<?xml version="1.0" encoding="utf-8"?>
<!-- Generator: Adobe Illustrator 27.4.0, SVG Export Plug-In . SVG Version: 6.00 Build 0)  -->
<svg version="1.1" id="Layer_1" xmlns="http://www.w3.org/2000/svg" xmlns:xlink="http://www.w3.org/1999/xlink" x="0px" y="0px"
	 viewBox="0 0 100 100" style="enable-background:new 0 0 100 100;" xml:space="preserve">
<style type="text/css">
	.st0{display:none;stroke:#FFFFFF;stroke-miterlimit:10;}
	.st1{fill:#FFFFFF;}
	.st2{fill:#ECECEC;}
</style>
<rect x="-17.7" y="-28.8" class="st0" width="528.6" height="181.5"/>
<g>
	<path class="st1" d="M51,46.5c-2.2,0-4,1.8-4,4c0,2.2,1.8,4.1,4,4.1c2.2,0,4-1.8,4-4l0,0C55,48.3,53.2,46.5,51,46.5z"/>
	<path class="st1" d="M64,50.5c0-2.2-1.8-4-4-4c-2.2,0-4,1.8-4,4.1s1.8,4,4,4C62.3,54.5,64,52.7,64,50.5z"/>
	<path class="st1" d="M69.1,54.5c2.2,0,4-1.8,4-4.1s-1.8-4-4-4s-4,1.8-4,4C65.1,52.7,66.9,54.5,69.1,54.5z"/>
	<path class="st1" d="M60,55.5c-2.2,0-4,1.8-4,4c0,2.2,1.8,4.1,4,4.1c2.2,0,4-1.8,4-4l0,0C64,57.4,62.3,55.5,60,55.5z"/>
	<path class="st1" d="M73.1,59.6c0-2.2-1.8-4.1-4-4.1c-2.2,0-4,1.8-4,4.1s1.8,4.1,4,4.1l0,0C71.3,63.6,73.1,61.9,73.1,59.6z"/>
	<path class="st1" d="M78.1,63.7c2.2,0,4-1.8,4-4c0-2.2-1.8-4.1-4-4.1c-2.2,0-4,1.8-4,4l0,0C74.1,61.9,75.9,63.6,78.1,63.7z"/>
	<path class="st1" d="M73.1,68.7c0-2.2-1.8-4.1-4-4.1c-2.2,0-4,1.8-4,4.1s1.8,4.1,4,4.1l0,0C71.3,72.8,73.1,71,73.1,68.7z"/>
	<path class="st1" d="M78.1,64.7c-2.2,0-4,1.8-4,4c0,2.2,1.8,4.1,4,4.1c2.2,0,4-1.8,4-4l0,0C82.1,66.5,80.3,64.7,78.1,64.7z"/>
	<path class="st1" d="M87.2,72.8c2.2,0,4-1.8,4-4c0-2.2-1.8-4.1-4-4.1c-2.2,0-4,1.8-4,4l0,0C83.2,71,84.9,72.8,87.2,72.8z"/>
	<path class="st1" d="M60,73.8c-2.2,0-4,1.8-4,4c0,2.2,1.8,4.1,4,4.1c2.2,0,4-1.8,4-4l0,0C64,75.6,62.3,73.8,60,73.8z"/>
	<path class="st1" d="M69.1,73.8c-2.2,0-4,1.8-4,4.1s1.8,4.1,4,4.1s4-1.8,4-4.1l0,0C73.1,75.6,71.3,73.8,69.1,73.8z"/>
	<path class="st1" d="M74.1,77.9c0,2.2,1.8,4,4,4s4-1.8,4-4.1s-1.8-4-4-4C75.9,73.8,74.1,75.6,74.1,77.9z"/>
	<path class="st1" d="M51,83c-2.2,0-4,1.8-4,4c0,2.2,1.8,4.1,4,4.1c2.2,0,4-1.8,4-4l0,0C55,84.7,53.2,83,51,83z"/>
	<path class="st1" d="M60,83c-2.2,0-4,1.8-4,4c0,2.2,1.8,4.1,4,4.1c2.2,0,4-1.8,4-4l0,0C64,84.7,62.3,83,60,83z"/>
	<path class="st1" d="M69.1,91c2.2,0,4-1.8,4-4.1s-1.8-4.1-4-4.1s-4,1.8-4,4.1l0,0C65.1,89.2,66.9,91,69.1,91z"/>
	<path class="st1" d="M51,9.9c-2.2,0-4,1.8-4,4.1s1.8,4,4,4s3.9-1.8,4-4C55,11.7,53.2,9.9,51,9.9C51.1,9.9,51.1,9.9,51,9.9z"/>
	<path class="st1" d="M64,14c0-2.2-1.8-4-4-4c-2.2,0-4,1.8-4,4c0,2.2,1.8,4,4,4C62.3,18,64,16.2,64,14L64,14z"/>
	<path class="st1" d="M69.1,18c2.2,0,4-1.8,4-4.1s-1.8-4.1-4-4.1s-4,1.8-4,4.1c0,0,0,0,0,0.1C65.1,16.2,66.9,18,69.1,18z"/>
	<path class="st1" d="M60,19c-2.2,0-4,1.8-4,4s1.8,4,4,4c2.2,0,4-1.8,4-4l0,0C64,20.8,62.3,19.1,60,19z"/>
	<path class="st1" d="M73.1,23.1c0-2.2-1.8-4.1-4-4.1c-2.2,0-4,1.8-4,4c0,2.2,1.8,4.1,4,4.1l0,0C71.3,27.1,73.1,25.3,73.1,23.1z"/>
	<path class="st1" d="M78.1,27.1c2.2,0,4-1.8,4-4c0-2.2-1.8-4-4-4c-2.2,0-4,1.8-4,4C74.1,25.3,75.9,27.1,78.1,27.1L78.1,27.1z"/>
	<path class="st1" d="M73.1,32.2c0-2.2-1.8-4.1-4-4.1c-2.2,0-4,1.8-4,4c0,2.2,1.8,4.1,4,4.1l0,0C71.3,36.2,73.1,34.4,73.1,32.2z"/>
	<path class="st1" d="M78.1,28.2c-2.2,0-4,1.8-4,4c0,2.2,1.8,4.1,4,4.1c2.2,0,4-1.8,4-4l0,0C82.1,30,80.3,28.2,78.1,28.2z"/>
	<path class="st1" d="M87.2,36.2c2.2,0,4-1.8,4-4c0-2.2-1.8-4.1-4-4.1c-2.2,0-4,1.8-4,4l0,0C83.2,34.4,84.9,36.2,87.2,36.2
		L87.2,36.2z"/>
	<path class="st1" d="M60,37.3c-2.2,0-4,1.8-4,4c0,2.2,1.8,4.1,4,4.1c2.2,0,4-1.8,4-4l0,0C64,39.1,62.3,37.3,60,37.3z"/>
	<path class="st1" d="M69.1,37.3c-2.2,0-4,1.8-4,4.1c0,2.2,1.8,4.1,4,4.1s4-1.8,4-4.1l0,0C73.1,39.1,71.3,37.3,69.1,37.3z"/>
	<path class="st1" d="M74.1,41.3c0,2.2,1.8,4,4,4s4-1.8,4-4.1s-1.8-4-4-4C75.9,37.3,74.1,39.1,74.1,41.3z"/>
	<path class="st1" d="M51,46.4c-2.2,0-4,1.8-4,4s1.8,4,4,4c2.2,0,4-1.8,4-4C55,48.2,53.2,46.4,51,46.4L51,46.4z"/>
	<path class="st1" d="M60,46.4c-2.2,0-4,1.8-4,4s1.8,4,4,4c2.2,0,4-1.8,4-4C64,48.2,62.3,46.4,60,46.4z"/>
	<path class="st1" d="M69.1,54.5c2.2,0,4-1.8,4-4.1s-1.8-4-4-4s-4,1.8-4,4C65.1,52.7,66.9,54.5,69.1,54.5z"/>
	<path class="st2" d="M14.8,46.5c-2.2,0-4,1.8-4,4c0,2.2,1.8,4.1,4,4.1c2.2,0,4-1.8,4-4l0,0C18.8,48.3,17,46.5,14.8,46.5z"/>
	<path class="st2" d="M27.9,50.5c0-2.2-1.8-4-4-4s-4,1.8-4,4.1s1.8,4,4,4C26.1,54.5,27.9,52.7,27.9,50.5z"/>
	<path class="st2" d="M32.9,54.5c2.2,0,4-1.8,4-4.1s-1.8-4-4-4s-4,1.8-4,4C28.9,52.7,30.7,54.5,32.9,54.5L32.9,54.5z"/>
	<path class="st2" d="M23.9,55.5c-2.2,0-4,1.8-4,4c0,2.2,1.8,4.1,4,4.1c2.2,0,4-1.8,4-4l0,0C27.9,57.4,26.1,55.5,23.9,55.5z"/>
	<path class="st2" d="M36.9,59.6c0-2.2-1.8-4.1-4-4.1s-4,1.8-4,4.1s1.8,4.1,4,4.1l0,0C35.1,63.6,36.9,61.9,36.9,59.6z"/>
	<path class="st2" d="M41.9,63.7c2.2,0,4-1.8,4-4c0-2.2-1.8-4.1-4-4.1s-4,1.8-4,4l0,0C38,61.9,39.7,63.6,41.9,63.7z"/>
	<path class="st2" d="M36.9,68.7c0-2.2-1.8-4.1-4-4.1s-4,1.8-4,4.1s1.8,4.1,4,4.1l0,0C35.1,72.8,36.9,71,36.9,68.7z"/>
	<path class="st2" d="M41.9,64.7c-2.2,0-4,1.8-4,4c0,2.2,1.8,4.1,4,4.1c2.2,0,4-1.8,4-4l0,0C45.9,66.5,44.1,64.7,41.9,64.7z"/>
	<path class="st2" d="M50.9,72.8c2.2,0,4-1.8,4-4c0-2.2-1.8-4.1-4-4.1c-2.2,0-4,1.8-4,4l0,0C46.9,71,48.8,72.8,50.9,72.8z"/>
	<path class="st2" d="M23.9,73.8c-2.2,0-4,1.8-4,4c0,2.2,1.8,4.1,4,4.1c2.2,0,4-1.8,4-4l0,0C27.9,75.6,26.1,73.8,23.9,73.8z"/>
	<path class="st2" d="M32.9,73.8c-2.2,0-4,1.8-4,4c0,2.2,1.8,4.1,4,4.1c2.2,0,4-1.8,4-4l0,0C36.9,75.6,35.1,73.8,32.9,73.8z"/>
	<path class="st2" d="M38,77.9c0,2.2,1.8,4,4,4s4-1.8,4-4.1s-1.8-4-4-4C39.7,73.8,38,75.6,38,77.9z"/>
	<path class="st2" d="M14.8,83c-2.2,0-4,1.8-4,4c0,2.2,1.8,4.1,4,4.1c2.2,0,4-1.8,4-4l0,0C18.8,84.7,17,83,14.8,83z"/>
	<path class="st2" d="M23.9,83c-2.2,0-4,1.8-4,4c0,2.2,1.8,4.1,4,4.1c2.2,0,4-1.8,4-4l0,0C27.9,84.7,26.1,83,23.9,83z"/>
	<path class="st2" d="M32.9,91c2.2,0,4-1.8,4-4.1s-1.8-4.1-4-4.1s-4,1.8-4,4.1l0,0C28.9,89.2,30.7,91,32.9,91z"/>
	<path class="st2" d="M14.8,9.9c-2.2,0-4,1.8-4,4c0,2.2,1.8,4,4,4c2.2,0,3.9-1.8,4-4C18.8,11.8,17.1,9.9,14.8,9.9
		C14.9,9.9,14.8,9.9,14.8,9.9z"/>
	<path class="st2" d="M27.9,14c0-2.2-1.8-4-4-4c-2.2,0-4,1.8-4,4c0,2.2,1.8,4,4,4S27.9,16.2,27.9,14L27.9,14z"/>
	<path class="st2" d="M32.9,18c2.2,0,4-1.8,4-4.1s-1.8-4.1-4-4.1s-4,1.8-4,4.1c0,0,0,0,0,0.1C28.9,16.2,30.7,18,32.9,18z"/>
	<path class="st2" d="M23.9,19c-2.2,0-4,1.8-4,4c0,2.2,1.8,4,4,4c2.2,0,4-1.8,4-4l0,0C27.8,20.8,26.1,19.1,23.9,19z"/>
	<path class="st2" d="M36.9,23.1c0-2.2-1.8-4.1-4-4.1c-2.2,0-4,1.8-4,4c0,2.2,1.8,4.1,4,4.1l0,0C35.1,27.1,36.9,25.3,36.9,23.1z"/>
	<path class="st2" d="M41.9,27.1c2.2,0,4-1.8,4-4s-1.8-4-4-4c-2.2,0-4,1.8-4,4C37.9,25.3,39.7,27.1,41.9,27.1L41.9,27.1z"/>
	<path class="st2" d="M36.9,32.2c0-2.2-1.8-4.1-4-4.1c-2.2,0-4,1.8-4,4c0,2.2,1.8,4.1,4,4.1l0,0C35.1,36.2,36.9,34.4,36.9,32.2
		L36.9,32.2z"/>
	<path class="st2" d="M41.9,28.2c-2.2,0-4,1.8-4,4c0,2.2,1.8,4.1,4,4.1c2.2,0,4-1.8,4-4l0,0C45.9,30,44.1,28.2,41.9,28.2z"/>
	<path class="st2" d="M50.9,36.2c2.2,0,4-1.8,4-4c0-2.2-1.8-4.1-4-4.1c-2.2,0-4,1.8-4,4l0,0C46.9,34.4,48.8,36.2,50.9,36.2
		L50.9,36.2z"/>
	<path class="st2" d="M23.9,37.3c-2.2,0-4,1.8-4,4c0,2.2,1.8,4.1,4,4.1s4-1.8,4-4l0,0C27.9,39.1,26.1,37.3,23.9,37.3z"/>
	<path class="st2" d="M32.9,37.3c-2.2,0-4,1.8-4,4c0,2.2,1.8,4.1,4,4.1s4-1.8,4-4l0,0C36.9,39.1,35.1,37.3,32.9,37.3z"/>
	<path class="st2" d="M38,41.3c0,2.2,1.8,4,4,4s4-1.8,4-4.1s-1.8-4-4-4S38,39.1,38,41.3z"/>
	<path class="st2" d="M14.8,46.4c-2.2,0-4,1.8-4,4s1.8,4,4,4c2.2,0,4-1.8,4-4C18.8,48.2,17,46.4,14.8,46.4L14.8,46.4z"/>
	<path class="st2" d="M23.9,46.4c-2.2,0-4,1.8-4,4s1.8,4,4,4c2.2,0,4-1.8,4-4C27.9,48.2,26.1,46.4,23.9,46.4z"/>
	<path class="st2" d="M32.9,54.5c2.2,0,4-1.8,4-4.1s-1.8-4-4-4s-4,1.8-4,4C28.9,52.7,30.7,54.5,32.9,54.5z"/>
</g>
</svg>
