<?xml version="1.0" encoding="utf-8"?>
<!-- Generator: Adobe Illustrator 27.4.0, SVG Export Plug-In . SVG Version: 6.00 Build 0)  -->
<svg version="1.1" id="Layer_1" xmlns="http://www.w3.org/2000/svg" xmlns:xlink="http://www.w3.org/1999/xlink" x="0px" y="0px"
	 viewBox="0 0 100 100" style="enable-background:new 0 0 100 100;" xml:space="preserve">
<style type="text/css">
	.st0{fill:#FFFFFF;}
</style>
<path class="st0" d="M15,36.5c10.8,0.8,20.5,5,29.9,9.8c1.5,0.8,3.1,1.7,4.5,2.7c1.4,0.9,2.4,0.8,3.7-0.1
	c8.4-5.4,17.5-9.1,27.2-11.6c2.8-0.7,5.6-0.8,8.4-0.9c1.1,0,2.5,0,2.7,1.4c0.3,1.4-1.1,1.8-2.1,2.2c-10,3.7-18.3,9.7-24.8,18.1
	c-5.1,6.6-8,14.1-10.3,22c-0.5,1.6-1.1,2.7-3,2.8c-1.9,0-2.7-1.1-3.2-2.8c-2.6-9.2-6.2-17.9-12.8-25.1c-5.8-6.4-12.9-11.4-21.1-14.6
	c-0.5-0.2-0.9-0.3-1.4-0.5c-0.9-0.5-2.2-0.8-1.9-2.1c0.3-1.3,1.5-1.3,2.6-1.4C13.9,36.5,14.4,36.5,15,36.5z"/>
<path class="st0" d="M51.2,22.7c10.1,0,19.3,2.6,27.3,8.9c0.3,0.2,0.6,0.5,0.9,0.7c0.6,0.6,1.5,1.2,1.3,2.1c-0.2,1-1.3,1.1-2.2,1.2
	c-6.1,1.3-12,3.2-17.6,5.9c-2.7,1.3-5.4,2.6-7.9,4.3c-1.3,0.9-2.3,0.8-3.6,0c-7.9-4.9-16.4-8.2-25.5-10.1c-0.8-0.2-1.9-0.1-2.1-1.2
	c-0.2-1,0.6-1.6,1.3-2.1C31.1,25.5,40.7,22.7,51.2,22.7z"/>
<path class="st0" d="M29.7,53.7c-3.4,1.4-5.1,3.6-4.8,6.2c0.2,2.6,1.9,4.7,4.5,5.4c2.6,0.8,4.9-0.3,7.2-3.6c1.8,2.1,3.1,4.4,4.5,6.8
	c0.4,0.7,0,1-0.5,1.4C35,75.1,26,74.6,21,68.8c-4.9-5.7-4.1-14.6,1.7-19.3c0.8-0.6,1.3-0.7,2.1,0C26.3,50.9,27.9,52.2,29.7,53.7z"/>
<path class="st0" d="M8.6,64.1c-0.3-6.4,1.2-12.4,3.8-18.2c1.2-2.7,1.8-2.9,4.4-1.5c0.6,0.3,1.2,0.7,1.8,1c2.2,1.3,2.4,2.2,0.7,4.1
	c-3,3.3-4.5,7.3-4.4,11.7c0.1,2.6,0.8,5,2.1,7.3c1.1,2.1,0.7,3.1-1.6,3.7c-0.8,0.2-1.6,0.3-2.4,0.3c-3.2,0-4.1-0.8-4.4-3.9
	C8.5,67,8.6,65.5,8.6,64.1z"/>
</svg>
