<?xml version="1.0" encoding="utf-8"?>
<!-- Generator: Adobe Illustrator 27.4.0, SVG Export Plug-In . SVG Version: 6.00 Build 0)  -->
<svg version="1.1" id="Layer_1" xmlns="http://www.w3.org/2000/svg" xmlns:xlink="http://www.w3.org/1999/xlink" x="0px" y="0px"
	 viewBox="0 0 100 100" style="enable-background:new 0 0 100 100;" xml:space="preserve">
<style type="text/css">
	.st0{fill:#FFFFFF;}
	.st1{opacity:7.000000e-02;enable-background:new    ;}
</style>
<path class="st0" d="M97.3,46.6L77.5,12.2c-1.5-2.7-4.3-4.4-7.4-4.4H30.5c-3.1,0.1-5.9,1.7-7.4,4.4L3.3,46.5c-1.5,2.7-1.5,5.9,0,8.6
	l19.8,34.6c1.5,2.7,4.3,4.5,7.4,4.6H70c3.1-0.1,5.9-1.8,7.4-4.6l19.8-34.4C98.8,52.7,98.8,49.3,97.3,46.6z M35.5,70l-7.9-7.9V39.7
	l7.9-7.9l4,4l-5.9,5.9v18.5l5.9,5.9L35.5,70z M41.7,53.7c-1.6,0-2.8-1.3-2.8-2.8s1.3-2.8,2.8-2.8c1.6,0,2.8,1.3,2.8,2.8
	S43.2,53.7,41.7,53.7z M50.1,53.7c-1.6,0-2.8-1.3-2.8-2.8s1.3-2.8,2.8-2.8c1.6,0,2.8,1.3,2.8,2.8S51.6,53.7,50.1,53.7z M58.5,53.7
	c-1.6,0-2.8-1.3-2.8-2.8s1.3-2.8,2.8-2.8c1.6,0,2.8,1.3,2.8,2.8S60.1,53.7,58.5,53.7z M72.5,62.1L64.6,70l-4-4l5.9-5.9V41.6
	l-5.9-5.9l4-4l7.9,7.9V62.1z"/>
<path class="st1" d="M72.5,39.7v22.4L64.6,70l-4-4l5.9-5.9v-4.8l-5.5-5.5c0.1,0.3,0.2,0.7,0.2,1.1c0,1.6-1.3,2.8-2.8,2.8
	c-1,0-2-0.6-2.4-1.4L39.5,35.7l-5.9,5.9v18.5l5.9,5.9l-4,4l24.2,24.7h10.1c3.1-0.1,6.4-2.1,7.9-4.8l16.5-28.6L72.5,39.7z M41.7,53.7
	c-1.6,0-2.8-1.3-2.8-2.8s1.3-2.8,2.8-2.8c1.6,0,2.8,1.3,2.8,2.8S43.2,53.7,41.7,53.7z M50.1,53.7c-1.6,0-2.8-1.3-2.8-2.8
	s1.3-2.8,2.8-2.8c1.6,0,2.8,1.3,2.8,2.8S51.6,53.7,50.1,53.7z"/>
</svg>
