<?xml version="1.0" encoding="utf-8"?>
<!-- Generator: Adobe Illustrator 27.4.0, SVG Export Plug-In . SVG Version: 6.00 Build 0)  -->
<svg version="1.1" id="Layer_1" xmlns="http://www.w3.org/2000/svg" xmlns:xlink="http://www.w3.org/1999/xlink" x="0px" y="0px"
	 viewBox="0 0 100 100" style="enable-background:new 0 0 100 100;" xml:space="preserve">
<style type="text/css">
	.st0{fill:#CAC9C2;}
	.st1{fill:#E6E6E6;}
	.st2{fill:#808080;}
	.st3{fill:#B3B3B3;}
</style>
<g>
	<path class="st0" d="M65.4,22.6H32.8L16.6,50.7l16.3,28.2h32.6l16.3-28.2L65.4,22.6z M49.6,63.6C42.6,63.6,37,58,37,51
		s5.7-12.7,12.7-12.7S62.3,44,62.3,51S56.6,63.6,49.6,63.6z"/>
	<g transform="translate(25.207161, 0.000000)">
		<path class="st1" d="M-12.3,32.5l-0.5,0.9c-0.1,1.3,0.1,2.7,0.7,3.7l7.9,13.6l4.2-7.3L-12.3,32.5"/>
		<path class="st1" d="M50,13.1c-1-1.7-3.4-3.2-5.4-3.2H4.4c-2,0-4.5,1.4-5.4,3.2l-11.7,20.3c-0.1,1.3,0.1,2.7,0.7,3.7l7.9,13.6
			l14.2-24.5h44.8c1.1,0,2.2,0.4,3.3,1.1L50,13.1z M5.4,20.4c-1.3,0-2.5-1.1-2.5-2.5c0-1.3,1.1-2.5,2.5-2.5c1.3,0,2.5,1.1,2.5,2.5
			C7.9,19.3,6.8,20.4,5.4,20.4z M43.3,20.2c-1.3,0-2.3-1-2.3-2.3c0-1.3,1-2.3,2.3-2.3c1.3,0,2.3,1,2.3,2.3
			C45.6,19.2,44.6,20.2,43.3,20.2z"/>
	</g>
	<g transform="translate(138.475703, 44.521739)">
		<path class="st2" d="M-54.6-16.4l-0.5-0.9c-1-0.6-2.2-1.1-3.3-1.1h-16.2l4.2,7.4L-54.6-16.4"/>
		<path class="st2" d="M-43.2,3.3l-11.9-20.6c-1-0.6-2.2-1.1-3.3-1.1h-16.2l14,24.6l-22.1,39.1c-0.5,0.8-1.3,1.6-2.3,2.2h16.3
			c2,0,4.5-1.4,5.4-3.2l20.1-34.8C-42.2,7.9-42.2,5.1-43.2,3.3z M-70,41.5c-1.3,0-2.5-1.1-2.5-2.5s1.1-2.5,2.5-2.5
			c1.3,0,2.5,1.1,2.5,2.5S-68.6,41.5-70,41.5z M-50.9,8.9c-1.3,0-2.5-1.1-2.5-2.5c0-1.3,1.1-2.5,2.5-2.5c1.3,0,2.5,1.1,2.5,2.5
			C-48.5,7.8-49.6,8.9-50.9,8.9z"/>
	</g>
	<g transform="translate(0.000000, 64.491049)">
		<path class="st3" d="M52.1,27.6h1.4c0.9-0.6,1.8-1.3,2.3-2.2L64,10.9h-8.7L52.1,27.6"/>
		<path class="st3" d="M35.6,10.9L13.2-27.4c-0.6-1-0.8-2.4-0.7-3.7L4.1-16.6c-1,1.7-1,4.6,0,6.3l20.1,34.8c1,1.7,3.4,3.2,5.4,3.2
			h23.9c0.9-0.6,1.8-1.3,2.3-2.2L64,10.9L35.6,10.9L35.6,10.9z M11.6-11.1c-1.3,0-2.5-1.1-2.5-2.5c0-1.3,1.1-2.5,2.5-2.5
			c1.3,0,2.5,1.1,2.5,2.5C14-12.2,12.9-11.1,11.6-11.1z M30.7,21.5c-1.3,0-2.5-1.1-2.5-2.5c0-1.4,1.1-2.5,2.5-2.5
			c1.3,0,2.5,1.1,2.5,2.5C33.1,20.5,32,21.5,30.7,21.5z"/>
	</g>
</g>
</svg>
