<?xml version="1.0" encoding="utf-8"?>
<!-- Generator: Adobe Illustrator 27.4.0, SVG Export Plug-In . SVG Version: 6.00 Build 0)  -->
<svg version="1.1" id="Layer_1" xmlns="http://www.w3.org/2000/svg" xmlns:xlink="http://www.w3.org/1999/xlink" x="0px" y="0px"
	 viewBox="0 0 100 100" style="enable-background:new 0 0 100 100;" xml:space="preserve">
<style type="text/css">
	.st0{clip-path:url(#SVGID_00000168115248830895482360000016956539543442763703_);}
	.st1{fill:#FFFFFF;}
</style>
<g>
	<defs>
		<rect id="SVGID_1_" x="-181.2" y="8.9" width="296.8" height="82.3"/>
	</defs>
	<clipPath id="SVGID_00000090261955120521106250000004874563298246948542_">
		<use xlink:href="#SVGID_1_"  style="overflow:visible;"/>
	</clipPath>
	<g style="clip-path:url(#SVGID_00000090261955120521106250000004874563298246948542_);">
		<path class="st1" d="M63.6,30.7v-4.1c0-0.4-0.1-0.7-0.5-0.9c-4-2.4-5.1-7.3-2.4-11.1c2.6-3.6,8.3-4.1,11.5-1.1
			c3.2,3,3.4,7.7,0.4,10.9c-0.5,0.6-1.1,1-1.8,1.3c-0.3,0.2-0.5,0.4-0.5,0.8v8.5c0,0.4,0.1,0.6,0.6,0.7c4.4,0.8,8.2,2.7,11.4,5.7
			c3.5,3.4,5.6,7.5,6.3,12.3c0.8,6-0.8,11.5-4.7,16.2c-3.8,4.5-8.7,7.1-14.7,7.7c-5.4,0.5-10.3-0.8-14.8-3.9c-0.4-0.3-0.6-0.3-1,0.1
			c-2.4,2.4-4.8,4.7-7.1,7c-0.3,0.3-0.4,0.5-0.3,0.9c1,3.7-1.7,7.5-5.5,8.2c-3.9,0.8-7.7-1.7-8.3-5.5c-0.9-4.8,3.5-9,8.4-7.9
			c0.4,0.1,0.7,0,1-0.3c2.4-2.4,4.8-4.7,7.2-7c0.4-0.4,0.3-0.6,0.1-1c-2.1-3.1-3.3-6.5-3.5-10.3c-0.3-4.5,0.8-8.6,3.2-12.4
			c0.3-0.5,0.2-0.7-0.2-1L22.9,24.9c-0.5-0.4-0.8-0.4-1.4-0.1c-5.1,2.4-11.3-1-12-6.4c-0.6-4.7,2.5-8.8,7.3-9.5
			c5.5-0.8,9.7,3.5,9.8,8c0,0.6,0,1.3-0.1,1.8c-0.1,0.4,0,0.6,0.3,0.8c2.9,2.2,5.7,4.4,8.6,6.5c5.8,4.4,11.6,8.8,17.4,13.2
			c0.4,0.3,0.7,0.4,1.3,0c2.7-2,5.7-3.3,9-3.9c0.4-0.1,0.6-0.3,0.6-0.7C63.6,33.5,63.6,32.1,63.6,30.7L63.6,30.7z M66.7,45.7
			c-6.2,0-11.1,4.7-11.1,10.7c0,5.7,4.5,10.8,11,10.9s11.1-5.2,11-10.7C77.6,50.5,72.8,45.7,66.7,45.7L66.7,45.7z"/>
	</g>
</g>
</svg>
