<?xml version="1.0" encoding="utf-8"?>
<!-- Generator: Adobe Illustrator 27.4.0, SVG Export Plug-In . SVG Version: 6.00 Build 0)  -->
<svg version="1.1"
	 id="svg2" xmlns:rdf="http://www.w3.org/1999/02/22-rdf-syntax-ns#" xmlns:svg="http://www.w3.org/2000/svg" xmlns:dc="http://purl.org/dc/elements/1.1/" xmlns:sodipodi="http://sodipodi.sourceforge.net/DTD/sodipodi-0.dtd" xmlns:inkscape="http://www.inkscape.org/namespaces/inkscape" xmlns:cc="http://creativecommons.org/ns#"
	 xmlns="http://www.w3.org/2000/svg" xmlns:xlink="http://www.w3.org/1999/xlink" x="0px" y="0px" viewBox="0 0 100 100"
	 style="enable-background:new 0 0 100 100;" xml:space="preserve">
<style type="text/css">
	.st0{fill:#FFFFFF;}
</style>
<sodipodi:namedview  bordercolor="#666666" borderopacity="1.0" fit-margin-bottom="10" fit-margin-left="10" fit-margin-right="10" fit-margin-top="10" id="base" inkscape:current-layer="g3052" inkscape:cx="277.56851" inkscape:cy="157.54494" inkscape:document-units="px" inkscape:pageopacity="0.0" inkscape:pageshadow="2" inkscape:snap-global="false" inkscape:window-height="822" inkscape:window-maximized="0" inkscape:window-width="1519" inkscape:window-x="51" inkscape:window-y="25" inkscape:zoom="16.190509" pagecolor="#ffffff" showgrid="false">
	</sodipodi:namedview>
<g>
	<path class="st0" d="M39.7,51.4c0.3-0.1,0.7-0.3,0.9-0.6c0.6-0.7,0.5-1.8-0.2-2.4l0,0l-7.7-6.9c-2.3,3.7-3.4,8.2-2.9,12.7
		L39.7,51.4L39.7,51.4z"/>
	<path class="st0" d="M44.2,43.6c0.3,0.2,0.6,0.3,1,0.3c0.9,0,1.7-0.7,1.7-1.6l0,0l0.6-10.2c-0.7,0.1-1.4,0.2-2.1,0.4
		c-3.8,0.9-7.1,2.7-9.7,5.3L44.2,43.6L44.2,43.6z"/>
	<polygon class="st0" points="47.2,54.4 50,55.7 52.8,54.4 53.5,51.3 51.6,48.9 48.4,48.9 46.5,51.3 	"/>
	<path class="st0" d="M43.1,58.6c-0.2-0.8-0.9-1.3-1.7-1.3v0c-0.1,0-0.2,0-0.3,0l0,0L31,59c1.6,4.3,4.5,7.8,8.1,10.2l3.9-9.4l0,0
		C43.1,59.4,43.2,59,43.1,58.6z"/>
	<path class="st0" d="M96.7,60.4l-8.1-35c-0.4-1.8-1.7-3.4-3.4-4.2L52.7,5.6c-0.9-0.4-2-0.7-3-0.6c-0.8,0-1.6,0.2-2.4,0.6L14.7,21.2
		c-1.7,0.8-3,2.4-3.4,4.2l-8,35c-0.4,1.6-0.1,3.3,0.8,4.7c0.1,0.2,0.2,0.3,0.4,0.5L27,93.7c1.2,1.5,3,2.3,4.9,2.3l36.2,0
		c1.9,0,3.7-0.9,4.9-2.3l22.6-28.1C96.7,64.1,97.2,62.2,96.7,60.4z M84.3,60c-0.2,1-1.4,1.7-2.5,1.4c0,0,0,0,0,0c0,0,0,0,0,0
		c-0.2,0-0.4-0.1-0.5-0.1c-0.7-0.2-1.2-0.4-1.8-0.7c-1.3-0.5-2.4-0.9-3.4-1c-0.5,0-0.8,0.2-1.1,0.4c-0.1,0-0.6-0.1-0.8-0.1
		c-1.9,5.9-5.9,11-11.3,14.2c0.1,0.2,0.3,0.7,0.3,0.8c-0.1,0.3-0.3,0.6-0.2,1.2c0.4,1,1,1.9,1.7,3.1c0.4,0.5,0.7,0.9,1,1.6
		c0.1,0.1,0.2,0.4,0.3,0.5c0.5,1.1,0.1,2.3-0.8,2.8c-1,0.5-2.2,0-2.7-1.1c-0.1-0.2-0.2-0.4-0.2-0.5c-0.3-0.6-0.4-1.2-0.6-1.8
		c-0.4-1.3-0.8-2.4-1.3-3.3c-0.3-0.4-0.7-0.5-1-0.6c-0.1-0.1-0.3-0.5-0.4-0.8c-1.1,0.4-2.2,0.7-3.3,1C50.6,78,45.5,77.5,41,75.8
		l-0.4,0.8c-0.3,0.1-0.6,0.2-0.8,0.4c-0.7,0.8-1,2.2-1.5,3.5c-0.2,0.6-0.3,1.2-0.6,1.8c-0.1,0.1-0.2,0.3-0.2,0.5c0,0,0,0,0,0
		c0,0,0,0,0,0c-0.5,1.1-1.7,1.6-2.7,1.1c-1-0.5-1.3-1.7-0.8-2.8c0.1-0.2,0.2-0.4,0.3-0.5c0.3-0.6,0.7-1,1-1.6
		c0.7-1.2,1.4-2.2,1.8-3.2c0.1-0.3,0-0.8-0.2-1.1l0.4-0.9c-5.2-3.1-9.3-8-11.3-14.1L25,60c-0.2-0.1-0.7-0.4-1.1-0.4
		c-1,0.2-2.1,0.5-3.4,1c-0.6,0.2-1.1,0.5-1.8,0.7c-0.1,0-0.3,0.1-0.5,0.1c0,0,0,0,0,0c0,0,0,0,0,0C17,61.7,15.9,61,15.7,60
		c-0.2-1,0.5-2.1,1.7-2.4c0,0,0,0,0,0c0,0,0,0,0,0c0.2,0,0.4-0.1,0.5-0.1c0.7-0.1,1.2-0.1,1.9-0.2c1.4-0.1,2.5-0.3,3.5-0.6
		c0.3-0.1,0.6-0.6,0.8-0.8l0.8-0.2c-0.9-6.3,0.6-12.6,4-17.6l-0.6-0.6c0-0.2-0.1-0.8-0.4-1.1c-0.8-0.7-1.7-1.3-2.9-2
		c-0.6-0.3-1.1-0.5-1.6-0.9c-0.1-0.1-0.3-0.2-0.4-0.3c0,0,0,0,0,0c-0.9-0.7-1.2-2-0.5-2.9c0.4-0.5,1-0.7,1.6-0.7
		c0.5,0,0.9,0.2,1.4,0.5c0.1,0.1,0.3,0.2,0.4,0.3c0.5,0.5,0.8,0.9,1.3,1.4c1,1,1.8,1.8,2.6,2.4c0.5,0.3,0.8,0.2,1.2,0.1
		c0.1,0.1,0.5,0.4,0.7,0.5c3.3-3.5,7.7-6.1,12.8-7.3c1.2-0.3,2.4-0.4,3.5-0.5l0-0.8c0.3-0.3,0.6-0.6,0.6-1c0.1-1-0.1-2.2-0.2-3.5
		c-0.1-0.6-0.2-1.2-0.3-1.9c0-0.1,0-0.3,0-0.5c0,0,0,0,0-0.1c0-1.2,0.9-2.2,2-2.2c1.1,0,2,1,2,2.2c0,0.2,0,0.4,0,0.6
		c0,0.7-0.2,1.2-0.3,1.9c-0.2,1.4-0.3,2.5-0.2,3.5c0.1,0.5,0.4,0.7,0.6,1c0,0.1,0,0.6,0,0.9c6.2,0.6,12,3.4,16.2,7.8l0.7-0.5
		c0.3,0,0.8,0.1,1.2-0.1c0.9-0.6,1.7-1.4,2.6-2.4c0.4-0.5,0.8-0.9,1.3-1.4c0.1-0.1,0.3-0.2,0.4-0.3c0.9-0.7,2.2-0.7,2.9,0.2
		c0.7,0.8,0.5,2.1-0.5,2.9c-0.1,0.1-0.3,0.3-0.4,0.3c-0.6,0.4-1.1,0.6-1.6,0.9c-1.2,0.7-2.1,1.3-2.9,2c-0.4,0.4-0.3,0.8-0.4,1.1
		c-0.1,0.1-0.5,0.4-0.7,0.6c1.7,2.5,2.9,5.3,3.7,8.5c0.7,3.1,0.8,6.2,0.4,9.1l0.8,0.2c0.1,0.2,0.4,0.7,0.8,0.8
		c1,0.3,2.1,0.4,3.5,0.6c0.6,0.1,1.2,0,1.9,0.2c0.2,0,0.4,0.1,0.6,0.1C83.8,57.9,84.6,58.9,84.3,60z"/>
	<path class="st0" d="M53,42.3c0,0.4,0.1,0.7,0.4,1c0.6,0.7,1.6,0.9,2.4,0.3l0,0l8.3-5.9c-3.1-3.1-7.3-5.1-11.7-5.6L53,42.3L53,42.3
		z"/>
	<path class="st0" d="M51.5,62.3c-0.2-0.3-0.4-0.6-0.8-0.7c-0.3-0.1-0.5-0.2-0.8-0.2c-0.6,0-1.2,0.4-1.5,0.9h0l-5,9
		c3.4,1.2,7.2,1.4,11,0.6c0.7-0.2,1.3-0.3,2-0.6L51.5,62.3L51.5,62.3z"/>
	<path class="st0" d="M67.2,41.5l-7.6,6.8l0,0c-0.3,0.2-0.5,0.5-0.5,0.9c-0.2,0.9,0.3,1.8,1.2,2l0,0l9.9,2.8
		c0.2-2.1,0.1-4.3-0.4-6.5C69.2,45.4,68.3,43.4,67.2,41.5z"/>
	<path class="st0" d="M58.9,57.3c-0.1,0-0.3,0-0.4,0h0c-0.2,0-0.4,0.1-0.7,0.2c-0.8,0.4-1.2,1.4-0.8,2.2l0,0l3.9,9.5
		c3.8-2.4,6.6-6,8.1-10.2L58.9,57.3L58.9,57.3z"/>
</g>
</svg>
